Coordinates
version=1
nRows=9
nColumns=24
inDegrees=yes

Units are S.I. units (second, meters, Newtons, ...)
Angles are in degrees.

endheader
time	pelvis_tilt	pelvis_list	pelvis_rotation	pelvis_tx	pelvis_ty	pelvis_tz	hip_flexion_r	hip_adduction_r	hip_rotation_r	knee_angle_r	ankle_angle_r	subtalar_angle_r	mtp_angle_r	hip_flexion_l	hip_adduction_l	hip_rotation_l	knee_angle_l	ankle_angle_l	subtalar_angle_l	mtp_angle_l	lumbar_extension	lumbar_bending	lumbar_rotation
      4.25500000	    -13.37348840	     -9.84716692	      7.31260060	     -0.73092076	     -0.01575931	      0.00977516	     25.38566058	      9.63485149	     -9.41956920	    -13.57464304	     -5.90359579	     -0.86762355	      5.80517998	     20.32150064	    -16.85498690	     -8.42739035	    -61.99768425	    -26.10633977	     12.14881958	     24.01959040	     14.24240488	     10.04297184	     -7.32109525
      4.26000000	    -13.25318021	     -9.63233314	      7.08005423	     -0.72520911	     -0.01465716	      0.01039711	     24.57657647	      9.68674487	     -8.97452361	    -13.02474209	     -5.97327465	     -1.04456598	      6.39818760	     20.80190064	    -16.66469475	     -8.46223783	    -62.46255792	    -25.30052172	     11.64760671	     23.85304856	     14.08856004	      9.86661267	     -6.95786687
      4.26500000	    -13.17775250	     -9.47699843	      6.86478969	     -0.71955486	     -0.01367091	      0.01099442	     23.84461879	      9.76495351	     -8.66834297	    -12.52821274	     -5.90646371	     -1.01618905	      6.48436838	     21.36247377	    -16.52670184	     -8.46405316	    -62.87322869	    -24.63934582	     11.15413739	     23.96742184	     13.99455291	      9.74066031	     -6.61264085
      4.27000000	    -13.07977306	     -9.22930181	      6.60585235	     -0.71393742	     -0.01262416	      0.01165716	     23.06996223	      9.77230971	     -8.19671479	    -12.02977799	     -5.84311108	     -1.07208340	      6.53228000	     21.82924779	    -16.29614451	     -8.52557615	    -63.17664150	    -23.98788470	     10.86672369	     24.09778441	     13.85086217	      9.53325032	     -6.21044600
      4.27500000	    -12.99872235	     -8.99468059	      6.33924337	     -0.70827061	     -0.01163729	      0.01234788	     22.30564975	      9.78543489	     -7.74807888	    -11.51931190	     -5.76003888	     -1.10310466	      6.54472833	     22.29962813	    -16.08633464	     -8.59978262	    -63.41353733	    -23.35402440	     10.72562210	     24.30214835	     13.74229550	      9.33314085	     -5.82719894
      4.28000000	    -12.90318320	     -8.74237828	      6.05458950	     -0.70277380	     -0.01063697	      0.01306331	     21.54169690	      9.77960521	     -7.27734588	    -11.02077190	     -5.73067506	     -1.17022806	      6.52180574	     22.74523673	    -15.85562616	     -8.68431041	    -63.58683167	    -22.73138557	     10.68099870	     24.55167882	     13.58374794	      9.12447367	     -5.38287204
      4.28500000	    -12.82606275	     -8.47968533	      5.76239787	     -0.69724180	     -0.00968900	      0.01378804	     20.79090545	      9.75258334	     -6.80913823	    -10.51806050	     -5.67567598	     -1.21059417	      6.49626356	     23.18888721	    -15.61643456	     -8.79204740	    -63.68903212	    -22.11731790	     10.73235806	     24.84921126	     13.45741179	      8.90151331	     -4.95361499
      4.29000000	    -12.74059953	     -8.21453566	      5.45027349	     -0.69172695	     -0.00876824	      0.01453470	     20.02593137	      9.72204776	     -6.30499908	    -10.00448294	     -5.62112129	     -1.25956695	      6.46743971	     23.60550938	    -15.38856399	     -8.93627294	    -63.72811565	    -21.51366023	     10.85536096	     25.18191479	     13.32335771	      8.68151751	     -4.51401465
      4.29500000	    -12.71987346	     -7.90663134	      5.16344034	     -0.68623762	     -0.00794143	      0.01525756	     19.34745742	      9.61391984	     -5.90439464	     -9.52549138	     -5.51747267	     -1.22839393	      6.46539371	     24.08377889	    -15.08559905	     -9.05756352	    -63.70164281	    -20.89790373	     11.05984585	     25.51591383	     13.26436156	      8.39504911	     -4.11713190
